<?xml version="1.0" encoding="utf-8"?>
<!-- Generator: Adobe Illustrator 24.0.3, SVG Export Plug-In . SVG Version: 6.00 Build 0)  -->
<svg version="1.1" id="Layer_1" xmlns="http://www.w3.org/2000/svg" xmlns:xlink="http://www.w3.org/1999/xlink" x="0px" y="0px"
     width="7202.2px" height="7199.3px" viewBox="0 0 7202.2 7199.3" style="enable-background:new 0 0 7202.2 7199.3;"
     xml:space="preserve">
<style type="text/css">
    .st0{fill:#39606E;}
    .st1{fill:#FFFFFF;}
</style>
<g>
    <g>
        <g>
            <path class="st0" d="M3735.022,104.728c-101.954-57.601-268.019-56.264-369.033,2.971L626.767,1713.971
                c-101.014,59.234-182.891,203.505-181.948,320.602l25.6,3180.399c0.943,117.097,85.131,260.031,187.085,317.631
                l2764.725,1561.969c101.954,57.6,268.02,56.264,369.033-2.971l2739.222-1606.272c101.014-59.234,182.891-203.505,181.948-320.602
                l-25.601-3180.399c-0.942-117.097-85.131-260.031-187.085-317.631L3735.022,104.728z"/>
        </g>
    </g>
</g>
<g>
    <g>
        <g id="_x32_37._Locked_5_">
            <g>
                <path class="st1" d="M4702.027,2899.814V2338.21c0-620.552-503.042-1123.44-1123.44-1123.44
                    c-620.552,0-1123.44,502.964-1123.44,1123.44v561.604c-206.825,0-374.454,167.706-374.454,374.454v1872.503
                    c0,206.825,167.707,374.454,374.454,374.454h2246.957c206.825,0,374.454-167.629,374.454-374.454V3274.268
                    C5076.48,3067.52,4908.774,2899.814,4702.027,2899.814z M2829.524,2338.133c0-413.728,335.335-748.986,748.986-748.986
                    s748.985,335.258,748.985,748.986v561.604H2829.524V2338.133z"/>
            </g>
        </g>
    </g>
    <g>
        <g id="Link_5_">
            <g>
                <path class="st0" d="M3708.182,3955.706c-19.598-12.626-42.527-16.035-63.674-11.31c-20.915,4.648-40.126,17.274-52.597,36.717
                    c-12.549,19.598-15.958,42.372-11.31,63.364c4.57,21.07,17.197,40.358,36.717,52.83
                    c81.181,51.978,129.595,140.285,129.595,236.106c0,74.906-29.203,145.32-82.11,198.304l-336.575,336.575
                    c-52.984,52.984-123.475,82.188-198.304,82.188c-154.615,0-280.492-125.799-280.492-280.492
                    c0-74.907,29.203-145.32,82.11-198.304l159.65-159.728c16.809-16.81,25.021-38.963,24.71-61.041
                    c-0.387-21.07-8.598-41.907-24.71-57.941c-16.422-16.422-37.957-24.711-59.491-24.711s-43.069,8.211-59.491,24.711
                    l-159.65,159.728c-84.822,84.667-131.454,197.375-131.454,317.287c0,247.415,201.325,448.74,448.741,448.74
                    c119.834,0,232.542-46.632,317.287-131.454l336.575-336.575c84.744-84.667,131.454-197.375,131.454-317.287
                    C3915.162,4180.038,3837.777,4038.823,3708.182,3955.706z M4027.328,3323.766c-119.835,0-232.543,46.632-317.287,131.454
                    l-336.575,336.575c-84.744,84.667-131.454,197.375-131.454,317.209c0,153.375,77.385,294.667,206.98,377.785
                    c19.598,12.549,42.527,15.958,63.674,11.31c20.915-4.57,40.126-17.197,52.597-36.717c12.549-19.598,15.957-42.373,11.31-63.442
                    c-4.57-21.07-17.197-40.358-36.717-52.752c-81.103-52.055-129.595-140.362-129.595-236.106
                    c0-74.906,29.203-145.32,82.11-198.304l336.575-336.575c52.984-52.984,123.475-82.11,198.304-82.11
                    c154.615,0,280.492,125.799,280.492,280.415c0,74.906-29.204,145.32-82.11,198.304l-159.65,159.65
                    c-16.81,16.81-25.02,38.963-24.71,61.04c0.387,21.07,8.598,41.908,24.71,57.942c16.422,16.422,37.957,24.633,59.491,24.633
                    c21.534,0,43.069-8.211,59.491-24.633l159.65-159.728c84.744-84.589,131.454-197.297,131.454-317.209
                    C4476.069,3525.092,4274.743,3323.766,4027.328,3323.766z"/>
            </g>
        </g>
    </g>
</g>
</svg>
