<?xml version="1.0" encoding="UTF-8"?>
<svg xmlns="http://www.w3.org/2000/svg" version="1.1" viewBox="0 0 7202.2 7199.3">
  <defs>
    <style>
      .cls-1 {
        fill: #1f3535;
      }

      .cls-2 {
        fill: #cace00;
      }
    </style>
  </defs>
  <!-- Generator: Adobe Illustrator 28.6.0, SVG Export Plug-In . SVG Version: 1.2.0 Build 709)  -->
  <g>
    <g id="Layer_2">
      <rect class="cls-1" x=".9" width="7199.3" height="7199.3"/>
    </g>
    <g id="Layer_1">
      <g id="Layer_1-2" data-name="Layer_1">
        <g>
          <g id="_x32_37._Locked">
            <path class="cls-2" d="M5118.1,2967.5v-758.4c0-837.9-679.3-1517.1-1517.1-1517.1s-1517.1,679.2-1517.1,1517.1v758.4c-279.3,0-505.6,226.4-505.6,505.6v2528.6c0,279.3,226.5,505.6,505.6,505.6h3034.2c279.3,0,505.6-226.4,505.6-505.6v-2528.6c0-279.2-226.5-505.6-505.7-505.6ZM2589.5,2208.9c0-558.7,452.8-1011.4,1011.4-1011.4s1011.4,452.7,1011.4,1011.4v758.4h-2022.8v-758.4h-.1Z"/>
          </g>
          <g id="Link">
            <path class="cls-1" d="M3790.7,4363.1c-28.7-18.4-62.2-23.4-93.2-16.6-30.6,6.8-58.7,25.3-77,53.7-18.3,28.7-23.3,62-16.6,92.7,6.7,30.8,25.1,59,53.7,77.4,118.8,76.1,189.7,205.4,189.7,345.6s-42.8,212.8-120.1,290.2l-492.6,492.6c-77.6,77.6-180.8,120.3-290.2,120.3-226.3,0-410.6-184.1-410.6-410.6s42.8-212.8,120.1-290.2l233.7-233.8c24.6-24.6,36.6-57,36.2-89.3-.6-30.8-12.6-61.3-36.2-84.8-24-24-55.5-36.2-87-36.2s-63,12.1-87,36.2l-233.7,233.8c-124.1,123.9-192.4,288.9-192.4,464.4,0,362.1,294.7,656.8,656.8,656.8s340.4-68.3,464.4-192.4l492.6-492.6c124-123.9,192.4-288.9,192.4-464.4s-113.3-431.2-303-552.8h.1ZM4257.9,3438.1c-175.4,0-340.4,68.3-464.4,192.4l-492.6,492.6c-124,123.9-192.4,288.9-192.4,464.3s113.3,431.3,303,552.9c28.7,18.3,62.2,23.3,93.2,16.6,30.6-6.7,58.7-25.1,77-53.7,18.3-28.7,23.3-62,16.6-92.8s-25.1-59-53.7-77.3c-118.7-76.2-189.7-205.5-189.7-345.6s42.8-212.8,120.1-290.2l492.6-492.6c77.6-77.6,180.8-120.1,290.2-120.1,226.3,0,410.6,184.1,410.6,410.5s-42.8,212.8-120.1,290.2l-233.7,233.7c-24.6,24.6-36.6,57-36.2,89.3.6,30.8,12.6,61.3,36.2,84.8,24,24,55.5,36.1,87,36.1s63-12.1,87-36.1l233.7-233.8c124-123.8,192.4-288.8,192.4-464.3,0-362.1-294.7-656.8-656.8-656.8h-.1Z"/>
          </g>
        </g>
      </g>
    </g>
  </g>
</svg>