<?xml version="1.0" encoding="utf-8"?>
<!-- Generator: Adobe Illustrator 21.1.0, SVG Export Plug-In . SVG Version: 6.00 Build 0)  -->
<svg version="1.1" id="Layer_1" xmlns="http://www.w3.org/2000/svg" xmlns:xlink="http://www.w3.org/1999/xlink" x="0px" y="0px"
     width="7202.2px" height="7199.3px" viewBox="0 0 7202.2 7199.3" style="enable-background:new 0 0 7202.2 7199.3;"
     xml:space="preserve">
<style type="text/css">
    .st0{fill:#FFFFFF;}
</style>
<path class="st0" d="M5478.7,2817v-938.9C5478.7,840.7,4637.7,0,3600.6,0C2563.2,0,1722.5,840.8,1722.5,1878.1V2817
    c-345.8,0-626,280.4-626,626v3130.3c0,345.8,280.4,626,626,626h3756.3c345.8,0,626-280.2,626-626V3443
    C6104.7,3097.3,5824.3,2817,5478.7,2817z M2348.3,1878c0-691.6,560.6-1252.1,1252.1-1252.1S4852.6,1186.3,4852.6,1878v938.9H2348.3
    V1878z M3943.5,5744l-562.7,562.7c-141.7,141.8-330.1,219.8-530.4,219.8c-413.6,0-750.2-336.6-750.2-750.2
    c0-200.5,78-388.9,219.8-530.4l266.9-267c27.5-27.6,63.5-41.3,99.5-41.3s72,13.9,99.5,41.3c26.9,26.8,40.7,61.6,41.3,96.9
    c0.5,36.9-13.2,73.9-41.3,102l-266.9,267c-88.4,88.6-137.3,206.3-137.3,331.5c0,258.6,210.4,468.9,468.9,468.9
    c125.1,0,242.9-48.8,331.5-137.4l562.7-562.7c88.4-88.6,137.3-206.3,137.3-331.5c0-160.2-80.9-307.8-216.6-394.7
    c-32.6-20.8-53.7-53.1-61.4-88.3c-7.8-35.1-2.1-73.2,18.9-105.9c20.8-32.5,53-53.6,87.9-61.4c35.4-7.9,73.7-2.2,106.4,18.9
    c216.6,139,346,375,346,631.4C4163.3,5414,4085.2,5602.5,3943.5,5744z M4881.2,4806.2l-266.9,267c-27.5,27.5-63.5,41.2-99.5,41.2
    c-36,0-72-13.7-99.5-41.2c-26.9-26.8-40.7-61.6-41.3-96.9c-0.5-36.9,13.2-73.9,41.3-102l266.9-266.9
    c88.4-88.6,137.3-206.3,137.3-331.5c0-258.5-210.4-468.8-468.9-468.8c-125.1,0-242.9,48.7-331.5,137.3L3456.5,4507
    c-88.4,88.6-137.3,206.3-137.3,331.5c0,160.1,81.1,307.7,216.6,394.7c32.6,20.7,53.7,53,61.4,88.2c7.8,35.2,2.1,73.3-18.9,106.1
    c-20.8,32.6-53,53.7-87.9,61.4c-35.4,7.8-73.7,2.1-106.4-18.9c-216.6-139-346-375.2-346-631.6c0-200.3,78.1-388.8,219.8-530.3
    l562.7-562.7c141.7-141.8,330.1-219.8,530.4-219.8c413.6,0,750.2,336.6,750.2,750.2C5100.9,4476.3,5022.9,4664.8,4881.2,4806.2z"/>
</svg>
