<?xml version="1.0" encoding="utf-8"?>
<!-- Generator: Adobe Illustrator 21.1.0, SVG Export Plug-In . SVG Version: 6.00 Build 0)  -->
<svg version="1.1" id="Layer_1" xmlns="http://www.w3.org/2000/svg" xmlns:xlink="http://www.w3.org/1999/xlink" x="0px" y="0px"
	 width="7202.2px" height="7199.3px" viewBox="0 0 7202.2 7199.3" style="enable-background:new 0 0 7202.2 7199.3;"
	 xml:space="preserve">
<style type="text/css">
	.st0{fill:#043340;}
	.st1{fill:#FFFFFF;}
</style>
<path id="background_7_" class="st0" d="M7202.2,973.3C7202.2,436.3,6767.4,0,6228.8,0H974.8C437.7,0,0,434.8,0,973.3V6226
	c0,537.1,434.8,973.3,973.3,973.3H6226c537.1,0,973.3-434.8,973.3-973.3V973.3H7202.2z"/>
<g>
	<g id="_x32_37._Locked_3_">
		<g>
			<path class="st1" d="M5050.9,3011.6v-725c0-801.1-649.4-1450.3-1450.3-1450.3c-801.1,0-1450.3,649.3-1450.3,1450.3v725
				c-267,0-483.4,216.5-483.4,483.4v2417.3c0,267,216.5,483.4,483.4,483.4h2900.7c267,0,483.4-216.4,483.4-483.4V3495
				C5534.3,3228.1,5317.8,3011.6,5050.9,3011.6z M2633.6,2286.5c0-534.1,432.9-966.9,966.9-966.9c534,0,966.9,432.8,966.9,966.9v725
				H2633.6V2286.5z"/>
		</g>
	</g>
</g>
<g>
	<g id="Link_2_">
		<g>
			<path class="st0" d="M3767.9,4374.7c-25.3-16.3-54.9-20.7-82.2-14.6c-27,6-51.8,22.3-67.9,47.4c-16.2,25.3-20.6,54.7-14.6,81.8
				c5.9,27.2,22.2,52.1,47.4,68.2c104.8,67.1,167.3,181.1,167.3,304.8c0,96.7-37.7,187.6-106,256l-434.5,434.5
				c-68.4,68.4-159.4,106.1-256,106.1c-199.6,0-362.1-162.4-362.1-362.1c0-96.7,37.7-187.6,106-256l206.1-206.2
				c21.7-21.7,32.3-50.3,31.9-78.8c-0.5-27.2-11.1-54.1-31.9-74.8c-21.2-21.2-49-31.9-76.8-31.9c-27.8,0-55.6,10.6-76.8,31.9
				l-206.1,206.2c-109.5,109.3-169.7,254.8-169.7,409.6c0,319.4,259.9,579.3,579.3,579.3c154.7,0,300.2-60.2,409.6-169.7
				l434.5-434.5c109.4-109.3,169.7-254.8,169.7-409.6C4035.1,4664.3,3935.2,4482,3767.9,4374.7z M4179.9,3558.9
				c-154.7,0-300.2,60.2-409.6,169.7l-434.5,434.5c-109.4,109.3-169.7,254.8-169.7,409.5c0,198,99.9,380.4,267.2,487.7
				c25.3,16.2,54.9,20.6,82.2,14.6c27-5.9,51.8-22.2,67.9-47.4c16.2-25.3,20.6-54.7,14.6-81.9c-5.9-27.2-22.2-52.1-47.4-68.1
				c-104.7-67.2-167.3-181.2-167.3-304.8c0-96.7,37.7-187.6,106-256l434.5-434.5c68.4-68.4,159.4-106,256-106
				c199.6,0,362.1,162.4,362.1,362c0,96.7-37.7,187.6-106,256l-206.1,206.1c-21.7,21.7-32.3,50.3-31.9,78.8
				c0.5,27.2,11.1,54.1,31.9,74.8c21.2,21.2,49,31.8,76.8,31.8c27.8,0,55.6-10.6,76.8-31.8l206.1-206.2
				c109.4-109.2,169.7-254.7,169.7-409.5C4759.2,3818.8,4499.3,3558.9,4179.9,3558.9z"/>
		</g>
	</g>
</g>
</svg>
