<?xml version="1.0" encoding="utf-8"?>
<!-- Generator: Adobe Illustrator 19.2.1, SVG Export Plug-In . SVG Version: 6.00 Build 0)  -->
<svg version="1.1" id="Capa_1" xmlns="http://www.w3.org/2000/svg" xmlns:xlink="http://www.w3.org/1999/xlink" x="0px" y="0px"
	 viewBox="0 0 96.3 96.3" style="enable-background:new 0 0 96.3 96.3;" xml:space="preserve">
<g>
	<g>
		<path d="M49.1,20.8c-4.3,0-7.8,3.5-7.8,7.8v7.6h15.6v-7.6C56.9,24.3,53.4,20.8,49.1,20.8z"/>
		<path d="M8,0v49c0,26.1,41.1,47.3,41.1,47.3S90.3,75.2,90.3,49V0H8z M71.4,61.8c0,3.2-2.6,5.9-5.9,5.9H32.8
			c-3.2,0-5.9-2.6-5.9-5.9V42c0-3.2,2.6-5.9,5.9-5.9h0.8v-7.6c0-8.6,7-15.6,15.6-15.6c8.6,0,15.6,7,15.6,15.6v7.6h0.8
			c3.2,0,5.9,2.6,5.9,5.9V61.8z"/>
	</g>
</g>
</svg>
